<svg xmlns="http://www.w3.org/2000/svg" viewBox="0 0 128 128" role="img" aria-labelledby="title desc">
  <title id="title">Yotsuba Clovers logo placeholder</title>
  <desc id="desc">A four-leaf clover mark for Yotsuba Clovers.</desc>
  <rect width="128" height="128" fill="#123c2e"/>
  <g fill="#d8c58b">
    <path d="M62 58C43 36 28 30 19 39c-10 10-4 26 19 43 5 4 16-3 24-24z"/>
    <path d="M70 58c19-22 34-28 43-19 10 10 4 26-19 43-5 4-16-3-24-24z"/>
    <path d="M62 70c-22 19-28 34-19 43 10 10 26 4 43-19 4-5-3-16-24-24z"/>
    <path d="M70 70c22 19 28 34 19 43-10 10-26 4-43-19-4-5 3-16 24-24z"/>
  </g>
  <circle cx="64" cy="64" r="8" fill="#f7f1e3"/>
  <path d="M67 71c12 9 20 20 23 34" fill="none" stroke="#d8c58b" stroke-width="5" stroke-linecap="round"/>
</svg>
